<svg width="32" height="32" viewBox="0 0 32 32" fill="none" xmlns="http://www.w3.org/2000/svg">
<g clip-path="url(#clip0_316_14)">
<path d="M32 16C32 7.16344 24.8366 0 16 0C7.16344 0 0 7.16344 0 16C0 24.8366 7.16344 32 16 32C24.8366 32 32 24.8366 32 16Z" fill="white"/>
<path d="M15.5912 19.173C15.5912 17.9163 15.2185 16.6878 14.5203 15.6429C13.8222 14.598 12.8298 13.7836 11.6688 13.3027C10.5078 12.8218 9.23019 12.696 7.99765 12.9412C6.76509 13.1863 5.63294 13.7915 4.74433 14.6801C3.85571 15.5687 3.25055 16.7009 3.00539 17.9334C2.76023 19.1659 2.88604 20.4435 3.36697 21.6045C3.84788 22.7656 4.66227 23.7579 5.70719 24.4561C6.75208 25.1542 7.98054 25.5268 9.23724 25.5268V19.173H15.5912Z" fill="#0085FF"/>
<path d="M20.7852 6.45718H16.7822V25.519H20.7852V6.45718Z" fill="#0085FF"/>
<path d="M29.1274 9.31155L26.2969 6.48102L16.7821 15.9958L19.6126 18.8264L29.1274 9.31155Z" fill="#0085FF"/>
<path d="M29.1338 22.672L26.3032 25.5026L16.7884 15.9878L19.619 13.1572L29.1338 22.672Z" fill="#0085FF"/>
</g>
<defs>
<clipPath id="clip0_316_14">
<rect width="32" height="32" fill="white"/>
</clipPath>
</defs>
</svg>
